<?xml version="1.0" encoding="utf-8"?>
<!-- Generator: Adobe Illustrator 25.3.1, SVG Export Plug-In . SVG Version: 6.00 Build 0)  -->
<svg version="1.1" id="Lager_1" xmlns="http://www.w3.org/2000/svg" xmlns:xlink="http://www.w3.org/1999/xlink" x="0px" y="0px"
	 viewBox="0 0 25 19.4" style="enable-background:new 0 0 25 19.4;" xml:space="preserve">
<style type="text/css">
	.st0{fill:#A1E1ED;}
</style>
<g>
	<path class="st0" d="M15.4,7.4l8.8-6.2v6.2H15.4z M24.2,18.2L15.4,12h8.9V18.2z M14.5,12.3l8.9,6.2h-8.9V12.3z M11.2,18.6v-7.4H0.8
		v-3h10.5V0.8h2.5v7.4h10.4v3H13.7v7.4H11.2z M1.6,18.6l8.8-6.2v6.2H1.6z M0.8,12h8.8l-8.8,6.2V12z M0.8,1.1l8.9,6.2H0.8V1.1z
		 M10.5,7L1.6,0.8h8.9V7z M23.4,0.8L14.6,7V0.8H23.4z M24.6,0H14.6h-4.1H0.4C0.2,0,0,0.2,0,0.4v7V12v7c0,0.2,0.2,0.4,0.4,0.4h10h4.1
		h10.1c0.2,0,0.4-0.2,0.4-0.4v-7V7.4v-7C25,0.2,24.8,0,24.6,0"/>
</g>
</svg>
