<?xml version="1.0" encoding="utf-8"?>
<!-- Generator: Adobe Illustrator 25.3.1, SVG Export Plug-In . SVG Version: 6.00 Build 0)  -->
<svg version="1.1" id="Lager_1" xmlns="http://www.w3.org/2000/svg" xmlns:xlink="http://www.w3.org/1999/xlink" x="0px" y="0px"
	 viewBox="0 0 25 25" style="enable-background:new 0 0 25 25;" xml:space="preserve">
<style type="text/css">
	.st0{fill:#A1E1ED;}
</style>
<g>
	<path class="st0" d="M21.3,5.6c0-1-0.8-1.9-1.9-1.9c-1,0-1.9,0.8-1.9,1.9c0,1,0.8,1.9,1.9,1.9C20.5,7.4,21.3,6.6,21.3,5.6
		 M22.2,5.6L22.2,5.6c0,1.5-1.2,2.8-2.8,2.8s-2.8-1.2-2.8-2.8c0-1.5,1.2-2.8,2.8-2.8S22.2,4,22.2,5.6 M24.1,7.9
		c0-3.8-3.1-6.9-6.9-6.9c-3.8,0-6.9,3.1-6.9,6.9c0,3.8,3.1,6.9,6.9,6.9C21,14.8,24.1,11.7,24.1,7.9 M10.2,11.6l-9.3,9.3v3.2h2.8
		v-2.8h2.8v-2.8h3.2l3.7-3.7C12,14.1,10.9,13,10.2,11.6 M14.4,15.2l-4.2,4.2H7.4v2.8H4.6V25H0v-4.6l9.8-9.8C9.4,9.8,9.3,8.8,9.3,7.9
		c0-4.3,3.5-7.9,7.9-7.9C21.5,0,25,3.5,25,7.9c0,4.3-3.5,7.9-7.9,7.9C16.2,15.7,15.2,15.6,14.4,15.2"/>
</g>
</svg>
