<?xml version="1.0" encoding="utf-8"?>
<!-- Generator: Adobe Illustrator 25.4.1, SVG Export Plug-In . SVG Version: 6.00 Build 0)  -->
<svg version="1.1" id="Lager_1" xmlns="http://www.w3.org/2000/svg" xmlns:xlink="http://www.w3.org/1999/xlink" x="0px" y="0px"
	 viewBox="0 0 271 66" style="enable-background:new 0 0 271 66;" xml:space="preserve">
<style type="text/css">
	.st0{fill:#FFFFFF;}
	.st1{fill:#E2003B;}
	.st2{fill:#0059C4;}
</style>
<rect x="97" y="12.8" class="st0" width="110" height="16.8"/>
<rect x="97" y="35.7" class="st0" width="153" height="16.8"/>
<path class="st1" d="M177.3,41.2c-0.4-0.3-0.9-0.5-1.4-0.6s-1.1-0.2-1.6-0.2h-1.4V48h1.4c0.6,0,1.1-0.1,1.7-0.2
	c0.5-0.1,1-0.3,1.4-0.6s0.7-0.7,0.9-1.2s0.4-1.1,0.4-1.8s-0.1-1.4-0.4-1.8C178,41.9,177.7,41.5,177.3,41.2"/>
<path class="st1" d="M234.4,40.5c-0.2-0.1-0.4-0.2-0.7-0.2s-0.5-0.1-0.7-0.1h-1.6V43h1.4c0.3,0,0.5,0,0.8-0.1c0.3,0,0.5-0.1,0.7-0.2
	c0.2-0.1,0.4-0.2,0.5-0.4s0.2-0.4,0.2-0.7s-0.1-0.5-0.2-0.7C234.7,40.8,234.6,40.6,234.4,40.5"/>
<path class="st1" d="M11.5,34.1L0,54.1h24.4c-4-5.7-6.5-12.6-6.7-20H11.5z"/>
<path class="st1" d="M246.1,51.3h-3.8V37.2h3.8V51.3z M235.2,51.3l-0.1-0.1l-2.9-5.3h-0.8v5.5h-3.7V37.2h5.5c0.7,0,1.3,0.1,2,0.2
	c0.6,0.1,1.2,0.4,1.8,0.7c0.5,0.3,0.9,0.8,1.3,1.4c0.3,0.6,0.5,1.3,0.5,2.1c0,1-0.3,1.8-0.8,2.5c-0.5,0.6-1.1,1.1-1.9,1.3l3.6,6
	h-4.5V51.3z M225,40.4h-3.9v10.9h-3.7V40.4h-3.9v-3.2H225V40.4z M205.1,41.6c0.1,0.1,0.2,0.2,0.4,0.3s0.4,0.2,0.6,0.3
	c0.3,0.1,0.5,0.2,0.9,0.3c0.5,0.2,1,0.3,1.5,0.5s1,0.5,1.4,0.8s0.8,0.7,1.1,1.2s0.4,1.1,0.4,1.8c0,0.8-0.2,1.5-0.5,2.1
	s-0.7,1.1-1.2,1.5s-1.1,0.7-1.8,0.9c-0.6,0.2-1.3,0.3-2,0.3c-1,0-2-0.2-2.9-0.5c-0.9-0.4-1.7-0.9-2.4-1.5l-0.1-0.1L203,47l0.1,0.2
	c0.3,0.4,0.7,0.7,1.3,1c0.8,0.4,1.5,0.5,2.2,0.3c0.2,0,0.4-0.1,0.5-0.2c0.1-0.1,0.3-0.2,0.3-0.4c0.1-0.2,0.1-0.4,0.1-0.6
	c0-0.2-0.1-0.4-0.2-0.5c-0.1-0.2-0.3-0.3-0.5-0.4c-0.2-0.1-0.5-0.3-0.9-0.4c-0.4-0.1-0.8-0.3-1.2-0.4c-0.4-0.1-0.9-0.3-1.3-0.5
	c-0.4-0.2-0.8-0.5-1.2-0.8c-0.3-0.3-0.6-0.7-0.8-1.2s-0.3-1-0.3-1.7c0-0.8,0.2-1.5,0.5-2.1s0.8-1,1.3-1.4s1.1-0.6,1.8-0.8
	c1.4-0.4,2.9-0.3,4.4,0.2c0.8,0.3,1.6,0.7,2.2,1.3l0.2,0.1l-2.4,2.6l-0.2-0.2c-0.3-0.3-0.6-0.6-1-0.8c-0.7-0.3-1.3-0.4-1.9-0.2
	c-0.2,0-0.4,0.1-0.5,0.2c-0.2,0.1-0.3,0.2-0.4,0.4c-0.1,0.1-0.1,0.3-0.1,0.5C205,41.3,205,41.5,205.1,41.6 M197.8,45.9
	c0,0.9-0.1,1.6-0.4,2.3c-0.3,0.7-0.7,1.3-1.2,1.8s-1.2,0.9-1.9,1.2s-1.6,0.4-2.5,0.4s-1.8-0.1-2.5-0.4c-0.7-0.3-1.4-0.7-1.9-1.2
	s-0.9-1.1-1.2-1.8s-0.4-1.5-0.4-2.3v-8.8h3.7v8.5c0,0.4,0,0.7,0.1,1s0.2,0.6,0.4,0.8s0.4,0.4,0.7,0.6c0.3,0.1,0.7,0.2,1.1,0.2
	s0.8-0.1,1.1-0.2c0.3-0.1,0.5-0.3,0.7-0.6c0.2-0.2,0.3-0.5,0.4-0.8c0.1-0.3,0.1-0.7,0.1-1v-8.5h3.7L197.8,45.9L197.8,45.9z
	 M181.8,47.4c-0.5,0.9-1.1,1.6-1.8,2.2c-0.7,0.6-1.6,1-2.5,1.3s-1.9,0.4-2.9,0.4h-5.3V37.2h5.2c1,0,2,0.1,2.9,0.3
	c1,0.2,1.8,0.6,2.6,1.2c0.8,0.5,1.4,1.3,1.9,2.2s0.7,2,0.7,3.4C182.5,45.5,182.3,46.5,181.8,47.4 M165.1,51.3H161l-0.1-0.1l-5.2-8.4
	l0.1,8.5h-3.6V37.2h4.1l0.1,0.1l5.2,8.4l-0.1-8.5h3.6V51.3z M147.7,51.3h-3.8V37.2h3.8V51.3z M141.2,51.3h-9.1V37.2h3.8V48h5.3V51.3
	z M124.3,45.4v6h-3.7v-6l-5.3-8.2h4.5l2.8,4.9l2.8-4.9h4.4L124.3,45.4z M109.7,51.3l-4.8-6v6h-3.7V37.2h3.7v5.3l4.7-5.3h4.7
	l-6.1,6.5l6.4,7.6H109.7z M91,34.1c-0.2,7.4-2.7,14.3-6.7,20h175.1l11.6-20H91z"/>
<path class="st0" d="M54.7,63.8c17.1,0,30.9-13.8,30.9-30.9S71.8,2,54.7,2S23.8,15.9,23.8,32.9S37.7,63.8,54.7,63.8"/>
<path class="st2" d="M37.8,47.5L34,51.1l1.1,1.1l3.8-3.6L37.8,47.5z M42.5,51.6l-1.4,2l-0.1-3l-1.3-0.9l-3,4.2l1.3,0.9l1.5-2.1
	l0.1,3.2l1.2,0.9l3-4.2L42.5,51.6z M34.8,43.4l-0.6-1.6l-2-0.3l1.3-1.5l-0.6-1.6l-2.2,2.9l-2,0.7l0.6,1.5l1.9-0.7L34.8,43.4z
	 M32.8,38.1l-0.2-1.9l-2.1-1.1l1.9-0.2l-0.2-1.6l-5.1,0.6l0.2,1.6l1.4-0.2l0.4,0.2l-1.7,1.4l0.2,1.9l2.5-2.3L32.8,38.1z M84.3,33
	c0-16.5-13.4-29.8-29.9-29.8C37.9,3.1,24.5,16.5,24.5,33s13.4,29.9,29.9,29.9C70.9,62.8,84.3,49.5,84.3,33 M87.4,33
	c0,18.2-14.8,33-33,33s-33-14.8-33-33s14.8-33,33-33S87.4,14.8,87.4,33 M46.5,55l-0.7-0.2L45,57l0.7,0.2c0.7,0.3,1.4-0.1,1.6-0.7
	C47.5,55.9,47.3,55.3,46.5,55 M48.8,57.1c-0.5,1.6-2,2-3.5,1.5l-2.2-0.8l1.7-4.9l2.2,0.8C48.5,54.2,49.3,55.5,48.8,57.1 M70.2,48.3
	l3.8,3.5l1.1-1.2l-3.8-3.5L70.2,48.3z M76.4,41.2l1.4,1.1l0.4-1L76.4,41.2z M75.4,39.8h5.5l-0.6,1.7h-0.6L79,43.2l0.5,0.4l-0.6,1.7
	l-4.2-3.6L75.4,39.8z M80.2,35.5c0-0.2-0.1-0.4-0.3-0.4c-0.2,0-0.3,0.1-0.4,0.3l-0.1,1.2l0.7,0.1L80.2,35.5z M78.2,35.3
	c0-0.2-0.1-0.3-0.3-0.3c-0.2,0-0.3,0.1-0.3,0.3l-0.1,1.2l0.6,0.1L78.2,35.3z M81.1,38.4L76,37.8l0.4-3.1c0.1-1.1,0.9-1.4,1.5-1.4
	c0.6,0.1,1,0.5,1.1,1c0.1-0.5,0.7-0.9,1.4-0.8c0.7,0.1,1.3,0.6,1.2,1.7L81.1,38.4z M38.9,17.3l-1.3-1.4l1.7-1.6l-0.9-1L36.6,15
	l-0.4-0.4L38,13l-0.9-1l-2.8,2.7l3.6,3.7L38.9,17.3z M58.2,56.2c0-0.1,0-0.2,0.3-0.3c0.5-0.1,1.1,0,1.6,0.2l0.6-1.2
	c-0.7-0.4-1.5-0.5-2.3-0.3c-1.4,0.3-2,1.2-1.8,2.1c0.4,2,3.1,1,3.2,1.5c0,0.2-0.2,0.3-0.5,0.4c-0.7,0.1-1.3-0.1-1.8-0.3L57,59.4
	c0.6,0.4,1.4,0.6,2.5,0.4c1.4-0.3,2.1-1.1,1.9-2.2C61,55.7,58.3,56.6,58.2,56.2 M53.7,58c0,0.5-0.4,0.9-1,0.8c-0.6,0-0.9-0.5-0.9-1
	l0.2-3l-1.6-0.1l-0.2,3c-0.1,1.3,0.7,2.3,2.4,2.4s2.6-0.8,2.7-2.1l0.2-3l-1.6,0L53.7,58z M65.8,53.5l-0.6-1.2l-4,1.7l0.6,1.2
	l1.3-0.6l1.5,3.5l1.4-0.6L64.5,54L65.8,53.5z M69.4,51.5c-0.2-0.2-0.4-0.2-0.7,0L67.9,52l0.5,0.7l0.8-0.6
	C69.4,52,69.5,51.7,69.4,51.5 M70.8,52.3l1.9,0.9l-1.4,1.1l-1.6-0.9l-0.5,0.3l1,1.3L69,56l-3.1-4.1l2.2-1.7c1-0.7,2-0.5,2.6,0.3
	C71.2,51.2,71,51.9,70.8,52.3 M36.1,45.2l-0.9-1.3l-4.3,2.9l2,2.9L34,49l-1.1-1.6L36.1,45.2z M56.1,47.6c-0.8-0.4-1.2-1.1-1.2-2
	c0-0.4,0.9-3.2,1.3-4.8c-1.1,1.4-2.1,3.6-2.3,4.6C53.8,46.4,55,47.4,56.1,47.6 M64.7,13.6l0.7-1.2l0.4-0.2l0.1,2.2l1.7,0.9l-0.4-3.4
	l2.9-1.1l-1.7-0.9l-2.1,1l1-1.7l-1.4-0.8l-2.6,4.5L64.7,13.6z M62.7,30.9c0.1-0.9-0.4-1.2-1.2-1.5c-1.4,0.2-2.7-0.2-3.2-0.3
	c-0.2-0.6-0.4-1.1-0.6-1.6c-1-0.6-3.7-1-5.2-0.9c-0.8,1.8-1.5,4.7-0.7,7.1c-1.2,0.1-2.5,0-3.5-0.1c-0.1-2.7,0.9-4.9,1.5-6.8
	c-0.5,0-1.1,0-1.5,0.1c3.1-1,6.3-1.2,9.1-0.5l0.1-1.9c0.4-1.7,1.6-3.3,3.2-3.7c0.1-0.1,0.4-0.6,0.5-1c-0.2,0-0.4,0-0.6-0.2
	c0.3,0,0.6-0.1,0.8-0.4c0-0.2,0-0.4,0-0.5c-0.2-0.1-1.5-0.3-2.4-0.3c-0.9-0.6-3-0.9-3.8-0.8c-0.1,0-0.2,0.1-0.4,0.1
	c-0.1-0.2-0.2-0.3-0.4-0.4s-0.7,0-0.7,0.2c-0.1,0.3-0.2,0.6-0.1,0.9c-0.5,0.4-1,0.8-1.2,1.3c-0.5,1.1-1.4,2.9-2.4,3.5
	c2.5-0.4,4.5,0,6.2,0.9c-4.2-0.7-8.8-0.5-12.7,1.5c0.2,0.9,0.6,2.1,1.1,2.8c1.1-0.7,2.3-1.2,3.5-1.6c-0.3,3-2.2,6.1-2.3,8.5
	c-0.2,4.7,2,6.1,3.1,7.8c0.1,0.6,0.2,2.6,0.4,3.6c0.2,0.9,0.6,1.7,0.9,1.8c1.3,0.4,4.5,0.5,6.4,0.2c0.1-0.2-0.1-0.5-0.2-0.6
	c1.2,0,1.5,0,2.1-0.2c-0.1-0.6-0.6-1-1-1.2c-0.6-0.3-0.6-1-0.7-1.6c-0.3-3.1,2.8-5,2.4-11c-1.7-0.1-4.7-0.4-6.2-1.7
	c2.8,0.4,6.4,0.9,8.5,0.1C62.3,32.1,62.6,31.3,62.7,30.9 M73.3,33c0,10.5-8.5,18.9-18.9,18.9c-10.5,0-18.9-8.5-18.9-18.9
	S44,14.1,54.4,14.1S73.3,22.5,73.3,33 M71,16.4c-0.1,0.1-0.4,0-0.6-0.2c-0.5-0.5-0.7-1.1-0.8-1.6l-1.4,0.3c0.1,0.7,0.4,1.5,1.2,2.3
	c1,1,2.1,1.1,2.9,0.2c1.3-1.4-1.1-3.1-0.7-3.4c0.1-0.1,0.2-0.1,0.4,0.1c0.4,0.3,0.7,0.9,0.8,1.4l1.4-0.2c-0.1-0.8-0.5-1.5-1.1-2
	c-1-1-2.1-0.9-2.7-0.2C68.9,14.4,71.4,16,71,16.4 M41.3,11.7l0.8-0.5c0.2-0.1,0.4-0.4,0.2-0.6c-0.1-0.2-0.4-0.2-0.6-0.1L40.8,11
	L41.3,11.7z M41.4,15.1l-2.6-4.5l2.4-1.4c1-0.6,2-0.2,2.5,0.6c0.4,0.8,0.2,1.4,0,1.8l1.7,1.1l-1.5,0.9l-1.4-1.1L42,12.8l0.8,1.4
	L41.4,15.1z M57.4,19.1c-0.1-0.2-0.2-0.3-0.4-0.3c0.1,0,0.3-0.1,0.5-0.2c-0.2-0.2-1-0.1-1.1,0.1C56.4,19.1,57,19.3,57.4,19.1
	 M54.6,18.6c0.1-0.2,0.1-0.8-0.1-1C54,17.9,53.8,18.3,54.6,18.6 M53.5,8.4l1.9,2.7h1.5L57,5.9h-1.6v2.5l-1.8-2.5H52L51.9,11h1.6V8.4
	z M60.4,11.9c1.3,0.4,2.2-0.3,2.7-0.8l-1.1-1c-0.2,0.4-0.7,0.6-1.2,0.5C60,10.4,59.7,9.7,59.9,9s0.8-1.1,1.6-0.9
	c0.5,0.1,0.7,0.6,0.8,1l1.5-0.3c-0.1-0.8-0.6-1.7-1.9-2.1c-1.6-0.4-3,0.3-3.4,1.8C57.9,10.2,58.8,11.5,60.4,11.9 M47.5,10l1-0.3
	l-0.9-1.5L47.5,10z M47.5,12.1l-1.7,0.5l0.5-5.5l1.9-0.5l3.2,4.5l-1.7,0.5L49.3,11l-1.8,0.5V12.1z"/>
<path class="st2" d="M11.5,11.3L0,31.3h17.8c0.3-7.5,2.9-14.3,7.1-20C24.9,11.3,11.5,11.3,11.5,11.3z"/>
<polygon class="st2" points="135.2,18.7 136.6,22.6 133.8,22.6 "/>
<g>
	<path class="st2" d="M121,17.6c-0.2-0.1-0.4-0.2-0.7-0.2c-0.3,0-0.5-0.1-0.7-0.1H118v2.8h1.4c0.3,0,0.5,0,0.8-0.1
		c0.3,0,0.5-0.1,0.7-0.2s0.4-0.2,0.5-0.4c0.1-0.2,0.2-0.4,0.2-0.7c0-0.3-0.1-0.5-0.2-0.7C121.3,17.8,121.1,17.7,121,17.6"/>
	<path class="st2" d="M196.3,18.7c0.1,0.1,0.2,0.2,0.4,0.3c0.2,0.1,0.4,0.2,0.6,0.3c0.3,0.1,0.5,0.2,0.9,0.3c0.5,0.2,1,0.3,1.5,0.5
		s1,0.5,1.4,0.8s0.8,0.7,1.1,1.2s0.4,1.1,0.4,1.8c0,0.8-0.2,1.5-0.5,2.1s-0.7,1.1-1.2,1.5s-1.1,0.7-1.8,0.9c-0.7,0.2-1.3,0.3-2,0.3
		c-1,0-2-0.2-2.9-0.5c-0.9-0.4-1.7-0.9-2.4-1.5l-0.1-0.1l2.5-2.5l0.1,0.2c0.3,0.4,0.7,0.7,1.3,1c0.7,0.4,1.5,0.5,2.2,0.3
		c0.2,0,0.4-0.1,0.5-0.2s0.3-0.2,0.3-0.4c0.1-0.2,0.1-0.4,0.1-0.6s-0.1-0.4-0.2-0.5c-0.1-0.2-0.3-0.3-0.5-0.4s-0.5-0.3-0.9-0.4
		s-0.8-0.3-1.2-0.4c-0.5-0.1-0.9-0.3-1.3-0.5c-0.4-0.2-0.8-0.5-1.2-0.8s-0.6-0.7-0.8-1.2s-0.3-1-0.3-1.7c0-0.8,0.2-1.5,0.5-2.1
		s0.8-1,1.3-1.4s1.1-0.6,1.8-0.8c1.4-0.4,2.9-0.3,4.4,0.2c0.8,0.3,1.6,0.7,2.2,1.3l0.2,0.1l-2.4,2.6l-0.2-0.2
		c-0.3-0.3-0.6-0.6-1-0.8c-0.7-0.3-1.2-0.4-1.9-0.2c-0.2,0-0.4,0.1-0.5,0.2c-0.2,0.1-0.3,0.2-0.4,0.4c-0.1,0.1-0.1,0.3-0.1,0.5
		C196.2,18.4,196.2,18.6,196.3,18.7 M185.9,28.4L185.9,28.4l-4.8-6v6h-3.7V14.3h3.7v5.3l4.7-5.3h4.7l-6.1,6.5l6.4,7.6H185.9z
		 M174.6,26.4c-0.6,0.7-1.4,1.3-2.3,1.7c-0.9,0.4-2,0.6-3.2,0.6c-1.1,0-2.1-0.2-3-0.5c-0.9-0.4-1.7-0.9-2.4-1.5
		c-0.7-0.7-1.2-1.5-1.6-2.4c-0.4-0.9-0.6-1.9-0.6-3s0.2-2.2,0.6-3.1c0.4-0.9,0.9-1.7,1.6-2.3c0.7-0.6,1.5-1.1,2.4-1.5
		c1.8-0.7,3.9-0.7,5.9,0c1,0.4,1.8,0.9,2.4,1.6l0.1,0.1l-2.6,2.6l-0.1-0.2c-0.3-0.4-0.7-0.7-1.1-0.9c-1-0.4-2.1-0.4-3,0
		c-0.5,0.2-0.9,0.5-1.2,0.8c-0.3,0.4-0.6,0.8-0.8,1.3s-0.3,1-0.3,1.6s0.1,1.1,0.3,1.6s0.4,0.9,0.8,1.3c0.3,0.3,0.7,0.6,1.2,0.8
		c0.5,0.2,1,0.3,1.5,0.3c0.6,0,1.2-0.1,1.6-0.4c0.5-0.2,0.8-0.6,1.1-0.9l0.1-0.2l2.6,2.5V26.4z M158.3,28.4h-4.1l-0.1-0.1l-5.2-8.4
		l0.1,8.5h-3.6V14.3h4.1l0.1,0.1l5.2,8.4l-0.1-8.5h3.6V28.4z M138.7,28.4l-1.1-2.7h-5l-1,2.7h-4.1l5.9-14.2h3.5l0.1,0.1l5.8,14h-4.1
		V28.4z M121.8,28.4l-3-5.5H118v5.5h-3.7V14.3h5.5c0.7,0,1.3,0.1,2,0.2c0.6,0.1,1.2,0.4,1.8,0.7c0.5,0.3,0.9,0.8,1.3,1.4
		c0.3,0.6,0.5,1.3,0.5,2.1c0,1-0.3,1.8-0.8,2.5c-0.5,0.6-1.1,1.1-1.9,1.3l3.6,6h-4.5V28.4z M110.8,17.5H105v2.4h5.3v3.2H105v5.3
		h-3.7V14.3h9.5V17.5z M83.9,11.3c4.2,5.7,6.8,12.5,7.1,20h168.4l11.6-20C271,11.3,83.9,11.3,83.9,11.3z"/>
</g>
</svg>
